<?xml version="1.0" encoding="UTF-8"?>
<svg id="b" data-name="Layer 2" xmlns="http://www.w3.org/2000/svg" viewBox="0 0 425.2 423.85">
  <g id="c" data-name="Layer 1">
    <ellipse cx="212.6" cy="211.93" rx="210.39" ry="209.72" fill="#fff" stroke="#fff" stroke-miterlimit="10" stroke-width="4.42"/>
    <ellipse cx="212.6" cy="211.93" rx="203.66" ry="202.96" fill="#231f20" stroke="#231f20" stroke-miterlimit="10" stroke-width="4.28"/>
    <g>
      <path d="M26.57,218.49c-7.79-.38-11.54-6.1-11-16.81.49-9.79,3.89-14.75,10.08-14.69l-.53,10.66c-1.47.15-2.3,1.6-2.43,4.33-.16,3.27,1.32,5,4.39,5.15,3.05.15,4.67-1.48,4.84-4.86.13-2.6-.59-4.4-1.92-4.81l-.3,6.06-3.61-.18.79-15.85,11.7.58-.49,9.79-2.16-.11-.05,1.08c1.75,1.17,2.66,4.06,2.48,7.82-.38,7.68-4.85,12.18-11.78,11.84Z" fill="#fff"/>
      <path d="M28.07,184.77c-7.38-1.75-9.94-7.95-7.49-18.26,2.45-10.31,7.51-14.71,14.9-12.96,7.38,1.75,9.94,7.95,7.49,18.26-2.45,10.31-7.51,14.71-14.9,12.96ZM36.03,170.16c.71-3.01-.37-4.88-3.18-5.54s-4.62.52-5.33,3.53.37,4.88,3.18,5.54,4.62-.52,5.33-3.53Z" fill="#fff"/>
      <path d="M31.1,136.4l6.91,3.01-4.52-8.48,4.88-11.17,6.3,12.44,13.31-3.35-5.2,11.92-7.78,1.69,5.92,2.58-4.55,10.43-19.8-8.64,4.55-10.43Z" fill="#fff"/>
      <path d="M54.21,95.06l5.58,3.6-7.78,12.07,1.36.88,6.84-10.61,4.36,2.81-6.84,10.61,1.27.82,7.63-11.84,5.58,3.6-13.8,21.4-18.15-11.71,13.95-21.63Z" fill="#fff"/>
      <path d="M70.48,76.37c4.02-4.43,8.2-5.22,11.56-2.17,2.64,2.4,2.98,5.52,1.03,8.91l10.15.35-8.7,9.59-9.05-1.04-.62.68,5.48,4.97-7.65,8.43-16-14.51,13.8-15.21ZM75.13,86.44c1-1.1,1.11-2.14.27-2.9-.84-.76-1.86-.56-2.87.55l-3.24,3.57,2.6,2.36,3.24-3.57Z" fill="#fff"/>
      <path d="M91.71,81.34c-1.55-1.8-.73-4.1,2.39-6.78s5.52-3.13,7.07-1.33.73,4.1-2.39,6.78c-3.13,2.68-5.52,3.13-7.07,1.33Z" fill="#fff"/>
      <path d="M105.23,47.67l11.1,11.49-5.52-15,13-8.18,11.5,18.29-8.71,5.49-3.65-5.81-4.72-7.71,5.62,15.25-9.08,5.72-11.31-11.67,4.91,7.6,3.65,5.81-8.71,5.48-11.5-18.29,13.44-8.46Z" fill="#fff"/>
      <path d="M152.57,24.77l2.43,6.18-13.36,5.26.59,1.51,11.75-4.63,1.9,4.82-11.75,4.63.55,1.41,13.11-5.17,2.43,6.18-23.69,9.34-7.91-20.09,23.95-9.44Z" fill="#fff"/>
      <path d="M236.82,26.91l-.48,6.46-20.32-1.5.48-6.46,20.32,1.5Z" fill="#fff"/>
      <path d="M287.1,41.84c3.71-6.86,10.49-7.77,19.92-2.66,8.62,4.67,11.62,9.88,8.89,15.44l-9.38-5.08c.5-1.38-.45-2.76-2.85-4.06-2.88-1.56-5.08-.97-6.54,1.74-1.45,2.68-.68,4.85,2.29,6.46,2.29,1.24,4.22,1.36,5.17.34l-5.33-2.89,1.72-3.18,13.96,7.56-5.58,10.3-8.62-4.67,1.03-1.9-.95-.52c-1.81,1.07-4.82.65-8.13-1.15-6.76-3.66-8.89-9.63-5.59-15.73Z" fill="#fff"/>
      <path d="M316.82,57.75c4.76-5.91,11.46-5.54,19.71,1.11,8.25,6.65,10.04,13.11,5.28,19.02-4.76,5.91-11.46,5.54-19.71-1.11-8.25-6.65-10.04-13.11-5.28-19.02ZM326.57,71.22c2.41,1.94,4.56,1.77,6.37-.48,1.81-2.25,1.52-4.39-.89-6.33-2.41-1.94-4.56-1.77-6.37.48-1.81,2.25-1.52,4.39.89,6.33Z" fill="#fff"/>
      <path d="M359.17,81.27l-5.68,4.95,9.6-.46,8.01,9.19-13.94.36-2.66,13.47-8.55-9.81,1.8-7.76-4.86,4.24-7.48-8.58,16.28-14.2,7.48,8.58Z" fill="#fff"/>
      <path d="M386.65,119.81l-5.64,3.51-7.59-12.19-1.38.86,6.67,10.72-4.4,2.74-6.67-10.72-1.28.8,7.44,11.96-5.64,3.51-13.45-21.62,18.33-11.41,13.6,21.85Z" fill="#fff"/>
      <path d="M396.6,142.53c2.29,5.53,1.21,9.64-2.99,11.37-3.29,1.36-6.26.33-8.5-2.88l-4.66,9.02-4.95-11.97,4.81-7.73-.35-.85-6.84,2.82-4.34-10.52,19.97-8.24,7.84,18.98ZM385.51,142.42c.57,1.38,1.46,1.92,2.51,1.48,1.05-.43,1.3-1.45.73-2.82l-1.84-4.46-3.25,1.34,1.84,4.46Z" fill="#fff"/>
      <path d="M382.99,159.58c2.29-.62,4.02,1.1,5.09,5.08,1.08,3.98.46,6.33-1.84,6.95-2.29.62-4.02-1.1-5.09-5.08-1.08-3.98-.46-6.33,1.84-6.95Z" fill="#fff"/>
      <path d="M407.45,185.74c1.25,8.93-1.74,14.03-8.79,15.02-7.06.99-11.34-3.09-12.59-12.02l-2.19-15.56,21.39-3,2.19,15.56ZM392.97,186.68c.31,2.2,1.7,3.15,4.1,2.82,2.41-.34,3.48-1.64,3.17-3.84l-.45-3.22-7.27,1.02.45,3.22Z" fill="#fff"/>
      <path d="M408.87,229.19l-6.64-.14.3-14.35-1.62-.03-.26,12.62-5.18-.11.26-12.62-1.51-.03-.29,14.08-6.64-.14.53-25.46,21.59.45-.54,25.73Z" fill="#fff"/>
      <path d="M389.16,246.08l15.54,8.01-2.04,10.7-19.8-11.49,3.28-17.24,22.63-3.41-2.23,11.71-17.4,1.73Z" fill="#fff"/>
      <path d="M360.41,326.37l-5.32-3.7,11.63-16.72,5.32,3.7-11.63,16.72Z" fill="#fff"/>
      <path d="M321.99,362.07c4.03,6.68,1.37,12.98-7.82,18.52-8.4,5.07-14.42,5-17.82-.16l9.14-5.51c.94,1.14,2.61,1.01,4.95-.4,2.81-1.69,3.42-3.89,1.83-6.52-1.58-2.61-3.83-3.05-6.73-1.3-2.23,1.34-3.32,2.95-2.92,4.28l5.2-3.13,1.87,3.1-13.6,8.2-6.05-10.03,8.4-5.06,1.12,1.85.93-.56c0-2.11,1.89-4.48,5.11-6.42,6.59-3.97,12.82-2.78,16.4,3.16Z" fill="#fff"/>
      <path d="M293.18,379.62c2.67,7.1-1.05,12.68-10.96,16.41-9.92,3.73-16.39,1.98-19.06-5.12-2.67-7.1,1.05-12.68,10.96-16.41,9.92-3.73,16.39-1.98,19.06,5.12ZM276.62,381.17c-2.89,1.09-3.84,3.03-2.82,5.73,1.02,2.7,3.01,3.54,5.9,2.45,2.89-1.09,3.84-3.03,2.82-5.73-1.02-2.7-3.01-3.54-5.9-2.45Z" fill="#fff"/>
      <path d="M251.41,404.13l-1.37-7.41-4.49,8.49-11.99,2.22,6.79-12.18-10.23-9.15,12.79-2.37,5.75,5.5-1.17-6.35,11.19-2.07,3.92,21.24-11.19,2.07Z" fill="#fff"/>
      <path d="M204.26,408.19l-.16-6.64,14.35-.34-.04-1.62-12.62.3-.12-5.18,12.62-.3-.04-1.51-14.08.33-.16-6.64,25.46-.6.51,21.59-25.73.61Z" fill="#fff"/>
      <path d="M179.66,405.28c-5.93-.83-8.93-3.83-8.31-8.33.49-3.53,2.88-5.57,6.78-5.87l-5.43-8.58,12.83,1.79,4.24,8.06.91.13,1.02-7.33,11.27,1.57-2.98,21.4-20.34-2.83ZM185.36,395.76c-1.48-.21-2.39.29-2.55,1.42-.16,1.12.59,1.85,2.07,2.06l4.78.67.48-3.48-4.78-.67Z" fill="#fff"/>
      <path d="M171.84,384.94c-.62,2.29-2.98,2.91-6.95,1.84-3.98-1.08-5.7-2.8-5.08-5.09.62-2.29,2.98-2.91,6.95-1.84,3.98,1.08,5.7,2.8,5.08,5.09Z" fill="#fff"/>
      <path d="M140.83,375.27l7.06,2.93,2.52-3.1,10.06,4.18-15.28,17.04-16.22-6.73,1.27-22.86,11.01,4.57-.42,3.98ZM140.05,382.51l-.65,6.16,3.9-4.81-3.25-1.35Z" fill="#fff"/>
      <path d="M101.12,373.5c-5.03-3.25-6.49-7.24-4.02-11.05,1.93-2.99,4.96-3.83,8.62-2.46l-1.31-10.06,10.88,7.02.45,9.09.77.5,4.01-6.21,9.56,6.17-11.72,18.14-17.26-11.14ZM110.3,367.28c-1.25-.81-2.29-.74-2.91.21s-.25,1.93,1.01,2.74l4.05,2.62,1.9-2.95-4.05-2.62Z" fill="#fff"/>
      <path d="M68,345.58l5.13-5.55,6.89,6.36,9.52-10.32,8.36,7.72-9.52,10.32,6.89,6.36-5.13,5.55-22.14-20.43Z" fill="#fff"/>
      <path d="M37.79,278.72l5.91-2.66,8.35,18.59-5.91,2.66-8.35-18.59Z" fill="#fff"/>
    </g>
    <ellipse cx="212.6" cy="211.93" rx="162.13" ry="161.57" fill="none" stroke="#fff" stroke-miterlimit="10" stroke-width="6.34"/>
  </g>
</svg>